<svg width="296" height="256" viewBox="0 0 296 256" fill="none" xmlns="http://www.w3.org/2000/svg">
<mask id="mask0_1123_42392" style="mask-type:alpha" maskUnits="userSpaceOnUse" x="0" y="0" width="296" height="256">
<rect width="296" height="256" rx="16" fill="#6414EE"/>
</mask>
<g mask="url(#mask0_1123_42392)">
<path d="M167.888 216.027C165.36 218.623 163.355 221.705 161.987 225.096C160.618 228.488 159.914 232.123 159.914 235.794C159.914 239.465 160.618 243.1 161.987 246.492C163.355 249.883 165.36 252.965 167.888 255.56C170.417 258.154 172.424 261.235 173.792 264.626C175.161 268.016 175.866 271.651 175.866 275.322C175.866 278.992 175.161 282.627 173.792 286.017C172.424 289.408 170.417 292.489 167.888 295.083C165.359 297.677 163.353 300.757 161.984 304.148C160.615 307.539 159.911 311.173 159.911 314.844C159.911 318.515 160.615 322.149 161.984 325.54C163.353 328.931 165.359 332.011 167.888 334.605C170.417 337.199 172.424 340.279 173.792 343.67C175.161 347.061 175.866 350.696 175.866 354.366C175.866 358.037 175.161 361.672 173.792 365.062C172.424 368.453 170.417 371.534 167.888 374.128C165.36 376.723 163.355 379.805 161.987 383.196C160.618 386.588 159.914 390.223 159.914 393.894C159.914 397.565 160.618 401.2 161.987 404.592C163.355 407.983 165.36 411.065 167.888 413.66C170.417 416.254 172.424 419.335 173.792 422.726C175.161 426.116 175.866 429.751 175.866 433.422C175.866 437.092 175.161 440.727 173.792 444.118C172.424 447.508 170.417 450.589 167.888 453.183C165.358 455.776 163.352 458.856 161.983 462.247C160.614 465.638 159.911 469.273 159.913 472.944H121.426C121.422 469.273 122.124 465.637 123.493 462.246C124.862 458.855 126.87 455.775 129.401 453.183C131.93 450.589 133.937 447.508 135.305 444.118C136.674 440.727 137.379 437.092 137.379 433.422C137.379 429.751 136.674 426.116 135.305 422.726C133.937 419.335 131.93 416.254 129.401 413.66C126.873 411.065 124.868 407.983 123.5 404.592C122.131 401.2 121.427 397.565 121.427 393.894C121.427 390.223 122.131 386.588 123.5 383.196C124.868 379.805 126.873 376.723 129.401 374.128C131.93 371.534 133.937 368.453 135.305 365.062C136.674 361.672 137.379 358.037 137.379 354.366C137.379 350.696 136.674 347.061 135.305 343.67C133.937 340.279 131.93 337.199 129.401 334.605C126.872 332.011 124.866 328.931 123.497 325.54C122.128 322.149 121.424 318.515 121.424 314.844C121.424 311.173 122.128 307.539 123.497 304.148C124.866 300.757 126.872 297.677 129.401 295.083C131.93 292.489 133.937 289.408 135.305 286.017C136.674 282.627 137.379 278.992 137.379 275.322C137.379 271.651 136.674 268.016 135.305 264.626C133.937 261.235 131.93 258.154 129.401 255.56C126.873 252.965 124.868 249.883 123.5 246.492C122.131 243.1 121.427 239.465 121.427 235.794C121.427 232.123 122.131 228.488 123.5 225.096C124.868 221.705 126.873 218.623 129.401 216.027C131.929 213.432 133.935 210.35 135.303 206.959C136.671 203.567 137.375 199.932 137.375 196.261C137.375 192.59 136.671 188.955 135.303 185.563C133.935 182.172 131.929 179.09 129.401 176.494C126.872 173.901 124.866 170.82 123.497 167.429C122.128 164.038 121.424 160.404 121.424 156.733C121.424 153.063 122.128 149.428 123.497 146.037C124.866 142.646 126.872 139.566 129.401 136.972L134.78 131.449C138.823 127.305 141.492 121.959 142.41 116.169C143.327 110.379 142.447 104.44 139.892 99.1927C136.633 92.511 134.936 85.1407 134.936 77.6675C134.936 70.1942 136.633 62.824 139.892 56.1422L148.665 38.124V57.7278C148.667 70.4844 153.603 82.7179 162.387 91.7375L167.909 97.4181C170.438 100.012 172.444 103.093 173.813 106.483C175.182 109.874 175.886 113.509 175.886 117.179C175.886 120.85 175.182 124.485 173.813 127.875C172.444 131.266 170.438 134.347 167.909 136.941C165.38 139.535 163.373 142.615 162.005 146.006C160.636 149.397 159.931 153.031 159.931 156.702C159.931 160.372 160.636 164.007 162.005 167.398C163.373 170.789 165.38 173.869 167.909 176.463C170.437 179.059 172.442 182.14 173.81 185.532C175.179 188.923 175.883 192.558 175.883 196.229C175.883 199.9 175.179 203.536 173.81 206.927C172.442 210.319 170.437 213.4 167.909 215.996L167.888 216.027Z" fill="url(#paint0_linear_1123_42392)"/>
<path d="M101.283 296.009C98.8682 298.479 96.9533 301.415 95.6478 304.648C94.3422 307.881 93.6716 311.347 93.6749 314.847V314.847C93.673 318.517 94.3765 322.152 95.7451 325.543C97.1137 328.934 99.1205 332.015 101.65 334.608C104.179 337.202 106.186 340.282 107.555 343.673C108.923 347.064 109.628 350.698 109.628 354.369C109.628 358.039 108.923 361.674 107.555 365.065C106.186 368.456 104.179 371.536 101.65 374.13C99.1224 376.726 97.1171 379.807 95.7489 383.199C94.3806 386.59 93.6764 390.225 93.6764 393.897C93.6764 397.568 94.3806 401.203 95.7489 404.594C97.1171 407.986 99.1224 411.068 101.65 413.663C104.179 416.257 106.186 419.338 107.555 422.728C108.923 426.119 109.628 429.754 109.628 433.424C109.628 437.095 108.923 440.729 107.555 444.12C106.186 447.511 104.179 450.592 101.65 453.186C99.1205 455.779 97.1137 458.859 95.7451 462.25C94.3765 465.641 93.673 469.276 93.6749 472.947H55.188C55.1839 469.276 55.8863 465.64 57.255 462.249C58.6237 458.857 60.6318 455.777 63.1636 453.186C68.2637 447.943 71.1284 440.835 71.1284 433.424C71.1284 426.014 68.2637 418.906 63.1636 413.663C60.6355 411.068 58.6299 407.986 57.2617 404.594C55.8935 401.203 55.1895 397.568 55.1895 393.897C55.1895 390.225 55.8935 386.59 57.2617 383.199C58.6299 379.807 60.6355 376.726 63.1636 374.13C68.2637 368.887 71.1284 361.78 71.1284 354.369C71.1284 346.958 68.2637 339.851 63.1636 334.608C60.6318 332.016 58.6237 328.936 57.255 325.545C55.8863 322.153 55.1839 318.518 55.188 314.847C55.185 311.348 55.8547 307.883 57.1584 304.65C58.4621 301.418 60.3741 298.481 62.7851 296.009L64.595 294.161C69.4553 289.163 72.1851 282.388 72.1851 275.324C72.1851 268.26 69.4553 261.485 64.595 256.487L62.7851 254.628C60.3761 252.155 58.4652 249.218 57.1614 245.986C55.8576 242.754 55.1865 239.29 55.1865 235.791C55.1865 232.293 55.8576 228.829 57.1614 225.597C58.4652 222.364 60.3761 219.428 62.7851 216.954L64.595 215.106C69.4534 210.104 72.1819 203.328 72.1819 196.264C72.1819 189.199 69.4534 182.423 64.595 177.421C62.0416 174.8 60.0496 171.659 58.7463 168.202C57.443 164.744 56.8574 161.044 57.0268 157.341C57.1962 153.637 58.117 150.01 59.7301 146.693C61.3433 143.376 63.6132 140.441 66.3946 138.077L75.5971 130.213C80.3884 126.151 84.2476 121.053 86.8988 115.283C89.5501 109.513 90.928 103.213 90.9347 96.8329V77.6807L98.8795 93.9977C102.291 101.014 103.786 108.848 103.206 116.667C102.626 124.487 99.9934 131.998 95.5871 138.403C92.0545 143.534 90.4014 149.782 90.9197 156.044C91.4379 162.305 94.0942 168.177 98.4194 172.623L103.103 177.421C107.969 182.419 110.702 189.196 110.702 196.264C110.702 203.331 107.969 210.108 103.103 215.106L101.303 216.954C98.8939 219.428 96.9827 222.364 95.679 225.597C94.3752 228.829 93.7044 232.293 93.7044 235.791C93.7044 239.29 94.3752 242.754 95.679 245.986C96.9827 249.218 98.8939 252.155 101.303 254.628L103.103 256.487C105.512 258.961 107.423 261.897 108.726 265.129C110.03 268.361 110.701 271.826 110.701 275.324C110.701 278.823 110.03 282.287 108.726 285.519C107.423 288.751 105.512 291.688 103.103 294.161L101.283 296.009Z" fill="url(#paint1_linear_1123_42392)"/>
<path d="M231.263 374.128C226.162 379.373 223.297 386.482 223.297 393.895C223.297 401.307 226.162 408.416 231.263 413.661C233.792 416.255 235.798 419.336 237.167 422.726C238.536 426.117 239.24 429.752 239.24 433.422C239.24 437.093 238.536 440.728 237.167 444.118C235.798 447.509 233.792 450.59 231.263 453.184C228.734 455.777 226.729 458.858 225.362 462.249C223.995 465.64 223.294 469.275 223.297 472.945H184.8C184.798 469.274 185.502 465.639 186.87 462.248C188.239 458.857 190.246 455.777 192.776 453.184C195.305 450.59 197.311 447.509 198.68 444.118C200.049 440.728 200.753 437.093 200.753 433.422C200.753 429.752 200.049 426.117 198.68 422.726C197.311 419.336 195.305 416.255 192.776 413.661C190.248 411.066 188.242 407.984 186.874 404.592C185.506 401.201 184.802 397.566 184.802 393.895C184.802 390.224 185.506 386.589 186.874 383.197C188.242 379.805 190.248 376.724 192.776 374.128C195.305 371.534 197.311 368.454 198.68 365.063C200.049 361.672 200.753 358.038 200.753 354.367C200.753 350.696 200.049 347.062 198.68 343.671C197.311 340.28 195.305 337.2 192.776 334.606C190.246 332.013 188.239 328.932 186.87 325.541C185.502 322.15 184.798 318.515 184.8 314.845V314.845C184.796 311.175 185.497 307.54 186.864 304.149C188.231 300.757 190.237 297.677 192.766 295.083C197.866 289.84 200.73 282.733 200.73 275.322C200.73 267.912 197.866 260.804 192.766 255.561C190.238 252.965 188.232 249.884 186.864 246.492C185.496 243.101 184.792 239.466 184.792 235.795C184.792 232.124 185.496 228.488 186.864 225.097C188.232 221.705 190.238 218.624 192.766 216.028L198.901 209.728C202.757 205.773 205.367 200.719 206.392 195.222C207.417 189.724 206.809 184.038 204.647 178.9C201.713 171.919 200.199 164.395 200.199 156.792C200.199 149.188 201.713 141.665 204.647 134.684L211.968 117.264V133.676C211.969 148.475 217.692 162.667 227.878 173.135L231.212 176.548C233.74 179.143 235.745 182.225 237.113 185.617C238.482 189.008 239.186 192.643 239.186 196.314C239.186 199.985 238.482 203.62 237.113 207.012C235.745 210.404 233.74 213.485 231.212 216.081C226.111 221.325 223.246 228.435 223.246 235.847C223.246 243.259 226.111 250.369 231.212 255.614C233.741 258.208 235.747 261.288 237.116 264.679C238.484 268.07 239.189 271.704 239.189 275.375C239.189 279.045 238.484 282.68 237.116 286.071C235.747 289.461 233.741 292.542 231.212 295.136C226.111 300.379 223.247 307.487 223.247 314.897C223.247 322.308 226.111 329.415 231.212 334.658C233.741 337.252 235.747 340.333 237.116 343.724C238.484 347.114 239.189 350.749 239.189 354.42C239.189 358.09 238.484 361.725 237.116 365.116C235.747 368.506 233.741 371.587 231.212 374.181L231.263 374.128Z" fill="url(#paint2_linear_1123_42392)"/>
</g>
<defs>
<linearGradient id="paint0_linear_1123_42392" x1="148.655" y1="38.124" x2="148.655" y2="238.017" gradientUnits="userSpaceOnUse">
<stop stop-color="white"/>
<stop offset="1" stop-color="white" stop-opacity="0"/>
</linearGradient>
<linearGradient id="paint1_linear_1123_42392" x1="82.9442" y1="77.6807" x2="82.9442" y2="259.391" gradientUnits="userSpaceOnUse">
<stop stop-color="white"/>
<stop offset="1" stop-color="white" stop-opacity="0"/>
</linearGradient>
<linearGradient id="paint2_linear_1123_42392" x1="212.016" y1="117.264" x2="212.016" y2="280.776" gradientUnits="userSpaceOnUse">
<stop stop-color="white"/>
<stop offset="1" stop-color="white" stop-opacity="0"/>
</linearGradient>
</defs>
</svg>
