<svg width="76" height="113" viewBox="0 0 76 113" fill="none" xmlns="http://www.w3.org/2000/svg">
<path d="M40.2308 98.1215C40.2142 96.4664 36.5301 95.0793 35.1824 94.8814C34.0747 94.7156 32.6991 94.5033 31.1948 94.3738C31.0677 94.3637 30.9449 94.3231 30.8369 94.2553C30.7289 94.1876 30.6389 94.0947 30.5746 93.9846C30.5103 93.8745 30.4736 93.7505 30.4677 93.6231C30.4617 93.4958 30.4867 93.3689 30.5404 93.2532C31.5226 90.9725 32.3552 88.6303 33.0331 86.2414C33.2891 85.3243 33.7506 84.4776 34.3826 83.7655C35.0146 83.0533 35.8004 82.4944 36.6806 82.1312C37.5607 81.768 38.512 81.6101 39.4623 81.6693C40.4126 81.7286 41.3369 82.0035 42.1652 82.4732C43.0571 82.9763 43.9088 83.5476 44.7127 84.1819C47.1988 86.2008 50.1998 88.3056 51.5651 87.3722C52.9304 86.4388 50.0753 82.6886 48.7205 81.1328C47.2175 79.4469 45.5553 77.91 43.757 76.5434C43.4503 76.3297 43.2096 76.0343 43.0623 75.6908C42.915 75.3473 42.8669 74.9693 42.9235 74.5998C42.98 74.2304 43.1391 73.8842 43.3824 73.6005C43.6258 73.3167 43.9437 73.1069 44.3003 72.9947C46.2063 72.2709 48.1846 71.7541 50.2011 71.4532C53.3882 71.1493 56.956 70.4767 57.299 68.8909C57.642 67.305 52.9426 66.6234 50.8943 66.4642C46.2534 66.1159 41.8793 65.8991 37.1922 68.0607C37.1922 68.0607 35.8955 68.6769 34.8921 69.0785C33.3974 69.6917 33.1085 66.0027 33.3161 64.4784C33.4739 63.4705 33.8696 62.5149 34.4703 61.6904C35.071 60.866 35.8595 60.1965 36.7705 59.7375C41.0676 57.188 46.0265 56.6431 47.6858 56.3578C50.4787 55.9347 54.1883 56.1411 54.2561 54.5156C54.3239 52.8901 50.9544 51.2817 47.8188 51.0064C44.3246 50.874 40.8299 51.2579 37.4477 52.1458C37.0647 52.2484 36.6624 52.2554 36.2762 52.1661C35.8899 52.0768 35.5314 51.894 35.2324 51.6337C34.9333 51.3734 34.7028 51.0436 34.5611 50.6734C34.4194 50.3031 34.3708 49.9036 34.4196 49.5102C34.7676 46.2484 35.3963 43.1183 36.9265 42.0389C38.9931 40.579 48.9618 40.3032 53.3211 41.4674C56.4271 42.2867 60.0232 42.9652 60.8868 41.5573C61.7503 40.1493 57.5987 37.9063 55.731 37.0426C53.5325 36.0592 51.2384 35.3053 48.8851 34.793C48.6463 34.7378 48.4304 34.6101 48.2668 34.4275C48.1033 34.245 48.0001 34.0164 47.9714 33.7729C47.9427 33.5295 47.9899 33.2831 48.1065 33.0675C48.2231 32.8519 48.4035 32.6776 48.6229 32.5684C54.88 29.4978 63.8839 23.9737 68.5341 19.1879C73.6159 13.9421 76.8844 10.2308 74.9705 8.25615C73.0496 6.27432 68.4508 9.57582 62.8333 13.3494C61.3612 14.3306 59.9887 15.271 58.5471 16.1113C58.1579 16.3577 57.7113 16.4988 57.2512 16.5207C56.7911 16.5427 56.3331 16.4449 55.9222 16.2367C55.5113 16.0285 55.1615 15.7173 54.907 15.3333C54.6525 14.9494 54.5021 14.5058 54.4705 14.0463C54.2218 11.0731 53.6072 8.14192 52.6407 5.31924C51.7626 2.67478 50.4346 0.31327 48.7969 0.577656C47.1591 0.842042 46.3555 2.94399 46.7204 6.29471C47.1752 10.145 47.3086 14.0265 47.1192 17.8989C47.0341 19.0994 46.6365 20.2568 45.9659 21.2561C45.2953 22.2555 44.375 23.0621 43.2963 23.5958C41.9704 24.2682 40.5941 25.0034 39.1738 25.8369C37.9719 26.5453 36.8185 27.3329 35.7212 28.1946C35.4814 28.3801 35.2012 28.5064 34.9034 28.5635C34.6056 28.6205 34.2985 28.6066 34.0071 28.5228C33.7157 28.4391 33.4482 28.2879 33.2262 28.0815C33.0041 27.875 32.8338 27.6191 32.729 27.3345C30.2949 21.2887 26.9643 15.6438 22.8493 10.5896C21.4417 8.79259 17.2805 3.99649 15.923 4.88051C14.5655 5.76453 18.4029 13.1863 19.265 14.593C20.3599 16.4841 21.9071 19.3016 23.4488 22.4727C21.0071 21.7892 18.5069 21.3359 15.9807 21.1186C14.6672 20.9991 10.7226 21.3548 10.2735 22.946C9.94516 24.0441 14.8243 25.8882 16.4331 26.571C19.8334 28.0102 25.5376 30.4612 28.1975 34.4842C28.4339 34.9396 28.5458 35.4495 28.5216 35.9621C28.4975 36.4746 28.3382 36.9716 28.06 37.4028C25.4746 41.747 24.3773 45.9024 23.5542 51.9643C18.9072 46.4148 13.6529 41.4036 7.88973 37.0244C6.50373 36.1117 1.43841 33.0553 0.385858 34.3401C-0.666699 35.6249 4.7633 41.1409 5.88969 42.3749C8.02416 44.7207 11.0563 48.007 14.0837 51.5902C12.8276 51.415 11.5788 51.2329 10.5972 51.1398C9.2837 51.0203 5.3321 51.3687 4.88991 52.9672C4.56161 54.0653 9.44792 55.9024 11.0426 56.585C14.4429 58.0242 20.3612 60.3513 22.814 64.5054C23.1763 65.1844 23.3407 65.9514 23.2885 66.7192C23.3684 68.3965 23.3152 68.1836 23.4784 69.9612C23.7189 72.3857 23.7163 74.8282 23.4707 77.2522C23.4549 77.4278 23.3794 77.5926 23.2567 77.7192C23.1341 77.8458 22.9717 77.9265 22.7967 77.9478C22.6217 77.9691 22.4447 77.9297 22.2953 77.8361C22.1458 77.7426 22.033 77.6006 21.9757 77.434C21.3965 75.7498 20.7259 74.0986 19.9667 72.4876C19.1975 71.0188 16.2438 65.888 14.6788 66.4718C13.1139 67.0555 15.1965 74.5347 15.5812 76.1673C15.9659 77.7998 16.4308 79.7307 16.907 81.8455C16.9436 81.9978 16.9315 82.1576 16.8727 82.3027C16.8138 82.4478 16.7111 82.5709 16.5787 82.6546C16.4464 82.7383 16.2912 82.7786 16.1349 82.7696C15.9786 82.7607 15.8289 82.703 15.707 82.6047C14.3393 81.5503 12.9197 80.5652 11.4534 79.653C10.3123 78.9068 6.64279 77.4917 5.52759 78.7118C4.77927 79.5346 8.27633 83.3868 9.39421 84.7126C11.7831 87.5221 17.4498 92.3771 16.3441 97.0697C16.1929 97.7807 15.9614 98.4723 15.6542 99.131C13.272 103.139 11.9738 103.854 11.873 103.966C11.0386 104.911 10.5924 106.138 10.6239 107.398C10.6554 108.659 11.1622 109.862 12.0427 110.765L12.3141 111.045C13.3076 111.923 14.6093 112.37 15.9328 112.289C17.2564 112.208 18.4933 111.604 19.3716 110.61C21.2768 108.504 23.0298 106.265 24.6175 103.91C25.7809 102.21 27.5634 101.032 29.5838 100.628C30.9598 100.367 32.2498 100.175 33.3271 100.022C35.0704 99.7947 40.2488 99.232 40.2308 98.1215Z" fill="#7BDEFF"/>
</svg>
