<svg width="1440" height="64" viewBox="0 0 1440 64" fill="none" xmlns="http://www.w3.org/2000/svg">
<path d="M1296 35.8401C1367.95 35.8401 1368.05 64.0001 1440 64.0001L1440 0.00012207L5.59506e-06 -3.81849e-06L0 64C71.955 64 72.045 35.84 144 35.84C215.955 35.84 216.045 64 288 64C359.955 64 360.045 35.84 432 35.84C503.955 35.84 504.045 64 576 64C647.955 64.0001 648.045 35.84 720 35.8401C791.955 35.8401 792.045 64.0001 864 64.0001C935.955 64.0001 936.045 35.8401 1008 35.8401C1079.96 35.8401 1080.05 64.0001 1152 64.0001C1223.96 64.0001 1224.05 35.8401 1296 35.8401Z" fill="#EADEFF" fill-opacity="0.5"/>
</svg>
