<svg width="417" height="208" viewBox="0 0 417 208" fill="none" xmlns="http://www.w3.org/2000/svg">
<g clip-path="url(#clip0_531_1778)">
<path d="M124.25 288.8C126.55 286.614 133.375 289.835 135.446 291.426C137.152 292.73 139.28 294.34 141.465 296.238C141.649 296.4 141.868 296.514 142.106 296.573C142.343 296.631 142.591 296.631 142.828 296.572C143.066 296.514 143.285 296.399 143.469 296.237C143.652 296.076 143.793 295.872 143.881 295.644C145.71 291.249 147.823 286.977 150.207 282.857C151.128 281.281 151.678 279.516 151.815 277.696C151.952 275.875 151.673 274.048 150.998 272.352C150.324 270.656 149.272 269.135 147.923 267.906C146.573 266.677 144.962 265.771 143.21 265.258C141.327 264.702 139.404 264.291 137.459 264.031C131.362 263.303 124.461 261.98 123.924 258.855C123.387 255.73 132.359 254.657 136.308 254.446C140.635 254.265 144.968 254.503 149.249 255.155C149.952 255.292 150.68 255.229 151.349 254.974C152.019 254.718 152.603 254.28 153.036 253.709C153.469 253.138 153.734 252.458 153.8 251.744C153.866 251.03 153.73 250.313 153.409 249.672C151.862 246.083 149.934 242.67 147.658 239.493C143.823 234.7 139.989 228.891 141.714 226.303C143.44 223.715 150.648 229.275 153.601 231.882C160.272 237.806 166.407 243.538 169.685 252.874C169.685 252.874 170.567 255.481 171.353 257.398C172.503 260.274 177.967 255.749 179.788 253.43C180.965 251.868 181.752 250.048 182.086 248.121C182.419 246.194 182.289 244.215 181.705 242.349C179.481 233.032 173.615 225.479 171.794 222.814C168.65 218.405 163.416 213.574 165.563 211.312C167.71 209.049 174.42 211.542 178.983 215.491C183.827 220.124 187.962 225.447 191.252 231.287C191.622 231.952 192.149 232.515 192.787 232.927C193.425 233.34 194.155 233.589 194.913 233.654C195.67 233.718 196.431 233.595 197.13 233.296C197.829 232.998 198.444 232.531 198.92 231.939C202.946 227.108 206.416 222.066 205.86 218.52C205.112 213.727 192.191 199.637 184.772 195.189C179.5 192.007 173.768 187.962 174.554 184.894C175.34 181.827 183.967 184.549 187.648 185.968C191.935 187.682 196.034 189.834 199.879 192.39C200.273 192.645 200.737 192.772 201.207 192.754C201.676 192.735 202.129 192.572 202.502 192.287C202.875 192.002 203.152 191.608 203.293 191.16C203.434 190.711 203.433 190.231 203.291 189.783C199.169 177.073 194.76 157.308 195.143 144.521C195.584 130.526 196.332 121.075 201.604 121.075C206.895 121.075 208.486 131.81 210.787 144.578C211.4 147.914 211.937 151.058 212.704 154.164C212.884 155.028 213.286 155.831 213.869 156.494C214.453 157.156 215.199 157.656 216.033 157.944C216.868 158.232 217.763 158.298 218.632 158.136C219.5 157.974 220.311 157.59 220.986 157.02C225.41 153.395 230.265 150.33 235.44 147.895C240.252 145.575 245.275 144.252 247.096 146.859C248.917 149.467 247.096 153.378 241.997 157.346C236.09 161.857 230.569 166.852 225.491 172.28C223.952 173.999 222.889 176.09 222.408 178.347C221.927 180.603 222.045 182.946 222.749 185.143C223.593 187.866 224.417 190.741 225.165 193.809C225.793 196.408 226.248 199.047 226.526 201.707C226.59 202.285 226.79 202.839 227.109 203.325C227.428 203.811 227.857 204.215 228.361 204.505C228.865 204.794 229.43 204.961 230.011 204.991C230.591 205.021 231.171 204.914 231.702 204.678C243.273 199.963 255.487 197.016 267.935 195.937C272.287 195.477 284.441 194.806 285.035 197.854C285.629 200.902 270.293 205.522 267.206 206.212C263.142 207.228 257.199 208.858 250.777 210.966C254.976 213.416 258.936 216.252 262.605 219.44C264.522 221.089 269.296 226.993 267.705 229.735C266.631 231.652 257.583 227.396 254.496 226.092C247.978 223.332 236.993 218.75 227.906 220.456C226.964 220.738 226.113 221.265 225.44 221.982C224.766 222.699 224.295 223.581 224.072 224.539C221.542 233.895 217.286 240.95 210.039 250.171C223.879 249.163 237.788 249.71 251.505 251.8C254.611 252.49 265.577 255.385 265.213 258.548C264.848 261.711 250.01 261.596 246.809 261.692C240.732 261.884 232.162 262.095 223.19 262.708C225.107 264.204 227.024 265.68 228.462 266.907C230.379 268.555 235.172 274.46 233.562 277.201C232.488 279.118 223.439 274.843 220.372 273.559C213.854 270.798 202.754 265.756 193.763 267.923C192.345 268.33 191.07 269.127 190.083 270.223C187.667 272.351 188.031 272.14 185.366 274.287C181.708 277.191 178.349 280.454 175.34 284.026C175.119 284.282 174.993 284.606 174.983 284.944C174.972 285.282 175.078 285.613 175.282 285.882C175.486 286.151 175.777 286.342 176.105 286.423C176.433 286.504 176.779 286.47 177.085 286.327C180.176 284.877 183.344 283.597 186.574 282.493C189.622 281.592 200.626 278.812 201.911 281.745C203.195 284.678 190.121 291.79 187.36 293.439C184.6 295.088 181.321 297.024 177.775 299.19C177.516 299.343 177.312 299.573 177.191 299.847C177.07 300.122 177.038 300.428 177.099 300.722C177.16 301.015 177.312 301.283 177.533 301.486C177.754 301.689 178.033 301.818 178.331 301.855C181.607 302.331 184.857 302.971 188.069 303.772C190.619 304.347 197.463 307.51 197.272 310.674C197.137 312.802 187.169 313.127 183.852 313.357C176.797 313.818 162.553 312.495 157.569 320.278C156.792 321.435 156.149 322.676 155.652 323.978C153.313 332.605 154.061 335.346 154.041 335.634C153.853 338.044 152.76 340.294 150.983 341.933C149.205 343.572 146.874 344.479 144.456 344.472H143.708C141.174 344.276 138.821 343.081 137.167 341.151C135.513 339.22 134.694 336.711 134.89 334.177C135.247 328.744 135.99 323.343 137.114 318.016C137.902 314.146 137.145 310.121 135.005 306.801C133.529 304.558 132.072 302.526 130.845 300.839C128.832 298.136 122.697 290.257 124.25 288.8Z" fill="#00A099"/>
</g>
<path d="M333.476 221.185C332.52 220.633 332.192 219.41 332.744 218.453L341.543 203.214C342.056 202.325 341.811 201.191 340.985 200.58C331.398 193.484 323.393 185.496 316.97 176.616C310.742 167.902 306.507 159.214 304.266 150.552C304.027 149.627 304.505 148.674 305.377 148.283L331.004 136.806C332.254 136.246 333.686 137.08 333.903 138.433C334.917 144.765 337.354 151.022 341.216 157.204C345.215 163.606 350.004 169.28 355.584 174.226C356.512 175.049 357.953 174.791 358.573 173.717L372.949 148.818C373.41 148.019 373.265 147.009 372.599 146.372L366.558 140.598C357.047 131.666 350.367 122.377 346.52 112.731C342.887 103.028 343.854 93.355 349.421 83.7122C355.772 72.7113 365.15 65.7212 377.554 62.742C389.593 59.7377 403.022 61.3261 417.842 67.5071C418.782 67.8991 419.872 67.5431 420.382 66.6612L429.073 51.6071C429.625 50.6505 430.849 50.3227 431.805 50.875L449.732 61.2249C450.688 61.7772 451.016 63.0004 450.464 63.957L441.775 79.0058C441.265 79.8899 441.504 81.0156 442.318 81.6321C458.549 93.9296 468.887 109.033 473.333 126.941C473.568 127.889 473.062 128.858 472.159 129.229L448.124 139.097C446.985 139.565 445.7 138.902 445.384 137.712C443.781 131.688 441.538 126.153 438.655 121.107C435.914 116.17 432.354 111.675 427.974 107.624C427.056 106.774 425.598 107.025 424.973 108.109L410.167 133.754C409.694 134.572 409.859 135.609 410.561 136.241L415.256 140.464C426.512 150.766 433.588 160.465 436.485 169.562C439.46 178.523 438.164 187.825 432.596 197.467C425.539 209.691 415.79 217.01 403.35 219.425C391.597 221.691 378.972 220.107 365.473 214.672C364.537 214.295 363.459 214.653 362.954 215.528L354.135 230.803C353.583 231.76 352.36 232.088 351.403 231.535L333.476 221.185ZM383.499 97.1399C381.931 99.8561 381.442 102.743 382.031 105.799C382.732 108.417 385.046 111.828 388.972 116.032C389.872 116.995 391.439 116.792 392.098 115.65L403.963 95.0993C404.579 94.0321 404.093 92.6614 402.919 92.2884C398.401 90.8534 394.572 90.5567 391.432 91.398C387.869 92.238 385.224 94.152 383.499 97.1399ZM399.654 184.424C401.144 181.844 401.352 178.975 400.276 175.819C399.471 173.183 397.376 170.133 393.991 166.671C393.088 165.748 391.565 165.972 390.92 167.09L379.612 186.676C378.991 187.751 379.492 189.133 380.679 189.495C389.774 192.272 396.099 190.582 399.654 184.424Z" fill="#98DFDC"/>
<g clip-path="url(#clip1_531_1778)">
<path d="M324.048 -58.8809C324.776 -56.4192 330.86 -55.915 332.954 -56.1923C334.677 -56.4155 336.819 -56.683 339.118 -57.1287C339.312 -57.1677 339.512 -57.1593 339.702 -57.1041C339.892 -57.0488 340.065 -56.9485 340.208 -56.8116C340.351 -56.6746 340.458 -56.5053 340.521 -56.3178C340.584 -56.1304 340.601 -55.9305 340.57 -55.7353C340.073 -51.9163 339.826 -48.069 339.83 -44.2178C339.837 -42.7412 339.509 -41.2823 338.869 -39.9516C338.228 -38.621 337.294 -37.4535 336.135 -36.538C334.976 -35.6225 333.625 -34.9828 332.182 -34.6676C330.739 -34.3523 329.244 -34.3698 327.809 -34.7186C326.265 -35.0902 324.752 -35.5806 323.283 -36.1853C318.718 -38.1408 313.348 -40.0056 311.708 -38.0335C310.068 -36.0614 315.919 -31.6802 318.6 -29.9351C321.558 -28.0589 324.691 -26.4724 327.953 -25.1978C328.501 -25.0093 328.986 -24.6709 329.351 -24.2211C329.717 -23.7713 329.949 -23.228 330.022 -22.6528C330.094 -22.0777 330.004 -21.4938 329.762 -20.9672C329.519 -20.4407 329.134 -19.9926 328.65 -19.6739C326.114 -17.7847 323.383 -16.1736 320.503 -14.8683C315.878 -13.0615 310.843 -10.5428 311.004 -8.03177C311.166 -5.52069 318.465 -6.49998 321.588 -7.13241C328.658 -8.58406 335.275 -10.1185 341.348 -15.3334C341.348 -15.3334 343.02 -16.8033 344.346 -17.8284C346.315 -19.3778 348.313 -13.9981 348.651 -11.6363C348.844 -10.066 348.659 -8.47256 348.113 -6.98768C347.568 -5.5028 346.676 -4.16927 345.512 -3.09777C340.185 2.53016 333.02 5.44907 330.666 6.57931C326.68 8.39671 321.059 9.66437 321.649 12.1177C322.238 14.571 327.947 15.5391 332.741 14.6178C338.009 13.3313 343.059 11.2744 347.726 8.51353C348.254 8.19778 348.851 8.01651 349.465 7.98563C350.079 7.95475 350.692 8.07523 351.248 8.33646C351.805 8.59769 352.289 8.99165 352.657 9.48375C353.026 9.97585 353.268 10.551 353.362 11.1586C354.229 16.1716 354.62 21.1075 352.796 23.3674C350.334 26.4227 335.582 31.068 328.585 31.183C323.604 31.2801 317.952 31.7954 317.262 34.2623C316.572 36.7292 323.717 38.3115 326.87 38.8065C330.567 39.3396 334.309 39.4897 338.037 39.2544C338.416 39.2353 338.793 39.334 339.114 39.5369C339.436 39.7397 339.687 40.0369 339.833 40.3878C339.979 40.7387 340.013 41.1262 339.931 41.4973C339.848 41.8685 339.653 42.2051 339.373 42.4612C331.344 49.6987 320.26 61.7625 315.356 70.8761C310.005 80.859 306.706 87.7829 310.399 89.9153C314.106 92.0555 319.563 85.1779 326.339 77.1634C328.118 75.0745 329.766 73.089 331.56 71.2233C332.036 70.6905 332.642 70.2904 333.319 70.0622C333.996 69.834 334.72 69.7855 335.422 69.9214C336.123 70.0574 336.777 70.3731 337.319 70.8377C337.862 71.3023 338.275 71.9 338.517 72.5721C340.151 76.9012 342.313 81.0122 344.953 84.8119C347.386 88.3834 350.37 91.3418 352.7 90.2519C355.031 89.1619 355.337 85.6853 353.369 80.8425C351.056 75.2926 349.208 69.5597 347.846 63.7033C347.463 61.8765 347.564 59.9813 348.14 58.2059C348.716 56.4304 349.746 54.8364 351.128 53.5822C352.821 52.0162 354.561 50.335 356.326 48.4885C357.818 46.9214 359.203 45.2567 360.474 43.5054C360.753 43.1269 361.117 42.8194 361.537 42.6078C361.957 42.3962 362.421 42.2866 362.891 42.2878C363.362 42.2889 363.825 42.4008 364.244 42.6144C364.663 42.828 365.025 43.1374 365.302 43.5174C371.501 51.5014 378.866 58.5067 387.151 64.2976C390.014 66.3802 398.258 71.7666 399.907 69.8714C401.556 67.9763 392.68 58.5359 390.797 56.804C388.361 54.4482 384.856 50.9027 381.21 46.8276C385.142 46.8101 389.064 46.4244 392.924 45.6756C394.934 45.296 400.667 43.09 400.661 40.5258C400.684 38.7485 392.623 38.0701 389.934 37.735C384.25 37.0325 374.701 35.7993 369.025 30.9284C368.479 30.3495 368.096 29.6365 367.914 28.8617C367.732 28.087 367.759 27.278 367.991 26.5167C370.002 18.9388 369.874 12.2747 368.527 2.88328C377.815 9.18715 387.781 14.4302 398.237 18.5143C400.692 19.287 409.545 21.6945 410.57 19.331C411.594 16.9676 401.152 11.0463 398.948 9.68418C394.768 7.09173 388.849 3.47774 382.812 -0.58109C384.759 -0.853267 386.7 -1.112 388.203 -1.39C390.213 -1.76963 395.959 -3.96773 395.94 -6.53973C395.963 -8.31706 387.895 -8.98203 385.226 -9.32286C379.543 -10.0253 369.727 -10.9827 364.304 -16.1372C363.475 -16.996 362.904 -18.0703 362.656 -19.2377C361.825 -21.7056 361.994 -21.4106 360.996 -23.9927C359.608 -27.507 358.574 -31.1513 357.911 -34.8712C357.86 -35.1398 357.902 -35.4176 358.032 -35.6586C358.161 -35.8995 358.369 -36.0889 358.621 -36.1949C358.873 -36.301 359.153 -36.3174 359.416 -36.2413C359.679 -36.1653 359.907 -36.0015 360.064 -35.7772C361.643 -33.5112 363.344 -31.3331 365.161 -29.2526C366.932 -27.3884 373.517 -20.99 375.603 -22.5254C377.69 -24.0607 371.407 -34.332 370.139 -36.6037C368.872 -38.8754 367.359 -41.5579 365.75 -44.5102C365.631 -44.7218 365.581 -44.9653 365.607 -45.2067C365.633 -45.4482 365.734 -45.6754 365.896 -45.8564C366.058 -46.0375 366.272 -46.1634 366.509 -46.2165C366.746 -46.2695 366.994 -46.247 367.218 -46.1522C369.705 -45.1604 372.241 -44.294 374.816 -43.5561C376.835 -42.9277 382.909 -42.3755 384.054 -44.6691C384.821 -46.2143 377.969 -50.4748 375.738 -51.9775C370.982 -55.1535 360.468 -59.9883 360.124 -67.4574C360.047 -68.5821 360.099 -69.7119 360.277 -70.825C362.128 -77.815 363.761 -79.4331 363.864 -79.6424C364.707 -81.4074 364.851 -83.4257 364.269 -85.293C363.687 -87.1602 362.42 -88.7384 360.723 -89.7112L360.199 -90.0137C358.344 -90.9017 356.213 -91.0164 354.273 -90.3328C352.334 -89.6492 350.745 -88.223 349.857 -86.3682C347.91 -82.4174 346.246 -78.3331 344.878 -74.1464C343.865 -71.1161 341.706 -68.6023 338.864 -67.1423C336.923 -66.168 335.08 -65.3336 333.538 -64.648C331.035 -63.5684 323.55 -60.5297 324.048 -58.8809Z" fill="#00A099"/>
</g>
<path d="M102.615 252.686C101.683 253.279 100.447 253.005 99.8536 252.073L95.9382 245.925C95.3862 245.058 94.2687 244.754 93.3392 245.192C88.0393 247.689 82.7108 249.332 77.3538 250.12C72.1668 250.854 67.4154 250.777 63.0995 249.89C62.1636 249.697 61.5387 248.83 61.5951 247.877L62.3282 235.475C62.409 234.107 63.8136 233.221 65.1361 233.576C67.9388 234.329 70.9711 234.578 74.2331 234.322C77.7493 234.046 81.1474 233.334 84.4273 232.185C85.5984 231.774 86.0354 230.376 85.3688 229.33L78.382 218.359C77.8867 217.581 76.9239 217.243 76.051 217.54L72.6652 218.692C66.2801 220.927 60.4091 221.774 55.052 221.233C49.7198 220.58 45.5031 217.819 42.402 212.95C38.864 207.395 37.8952 201.408 39.4955 194.991C40.9447 188.952 44.6722 183.343 50.6778 178.162C51.4489 177.497 51.6382 176.367 51.0912 175.508L47.2296 169.445C46.6362 168.513 46.9105 167.277 47.8421 166.684L55.27 161.953C56.2016 161.36 57.4379 161.634 58.0313 162.565L61.8896 168.624C62.438 169.485 63.5462 169.79 64.4757 169.368C73.4787 165.276 82.3739 164.199 91.1613 166.136C92.1144 166.346 92.74 167.246 92.6518 168.218L91.6099 179.698C91.4986 180.924 90.3171 181.755 89.1088 181.52C86.3391 180.983 83.6253 180.765 80.9673 180.869C78.4082 180.938 75.8548 181.375 73.307 182.182C72.1143 182.559 71.6638 183.971 72.3359 185.026L79.5418 196.341C80.0493 197.137 81.045 197.47 81.9297 197.139L84.2657 196.265C91.6982 193.556 97.853 192.625 102.73 193.471C107.563 194.249 111.531 197.072 114.632 201.941C118.563 208.114 119.594 214.35 117.726 220.649C116.02 226.371 112.482 231.612 107.112 236.37C106.356 237.039 106.175 238.159 106.717 239.01L110.655 245.194C111.249 246.125 110.974 247.362 110.043 247.955L102.615 252.686ZM56.7375 200.494C57.6111 201.866 58.8212 202.782 60.368 203.243C61.5379 203.502 63.2536 203.361 65.5151 202.818C66.7975 202.511 67.3399 201.021 66.6315 199.909L61.3076 191.55C60.6456 190.51 59.1966 190.302 58.3796 191.224C57.0981 192.671 56.3038 194.087 55.9967 195.471C55.5297 197.311 55.7766 198.985 56.7375 200.494ZM100.745 213.967C99.9152 212.664 98.6458 211.882 96.937 211.62C95.7687 211.403 94.2557 211.528 92.398 211.994C91.1459 212.308 90.6429 213.771 91.3364 214.86L96.366 222.757C97.033 223.804 98.4969 224.005 99.3101 223.067C102.089 219.861 102.567 216.828 100.745 213.967Z" fill="#D4EFEE"/>
<path d="M226.383 70.0938C226.382 69.699 226.495 69.3145 226.706 68.9986C231.65 61.4466 252.853 32.0438 260.991 23.3179C269.735 13.9385 265.527 23.3179 265.527 23.3179L246.458 63.97C245.573 65.8587 245.111 67.9617 245.111 70.0969C245.111 72.232 245.573 74.335 246.458 76.2237L265.527 116.876C265.527 116.876 269.563 125.789 260.991 116.876C252.73 108.289 231.64 78.7531 226.706 71.1952C226.496 70.8766 226.383 70.4904 226.383 70.0938V70.0938Z" fill="#002C9B"/>
<path d="M194.162 98.4146L188.626 94.4571C185.068 91.9095 188.046 86.5905 194.173 84.5996L167.676 93.2952L192.4 99.9153C193.539 100.218 194.942 98.9894 194.162 98.4146Z" fill="#002C9B"/>
<path d="M198.398 58.0527L103.078 51.7412L104.024 48.2315C107.394 35.6581 113.366 24.1646 121.449 14.6957V14.6957C121.347 27.2217 122.19 37.3817 131.462 43.7416C135.225 46.2671 139.572 47.4722 143.947 47.2028L172.401 45.6477L198.398 58.0527Z" fill="#002C9B"/>
<path d="M207.814 68.2791L216.032 61.2597L209.797 56.2372L201.579 59.0268L207.814 68.2791Z" fill="#002C9B"/>
<path d="M212.887 72.689L207.905 82.855L215.408 84.5978L221.922 78.2985L212.887 72.689Z" fill="#002C9B"/>
<path d="M0.341812 69.5738L59.6994 67.5951C71.1438 66.8976 82.2079 62.7307 91.7216 55.535L95.414 52.7393C100.686 47.2388 105.04 46.2403 109.496 46.3734C127.2 46.8817 174.894 51.6864 228.738 64.2367C249.763 69.1381 239.175 70.9837 226.405 76.6114C178.571 97.6878 130.295 97.0161 109.899 95.4791C111.354 94.0748 112.422 92.2314 112.978 90.1661C116.612 78.2331 109.995 65.7434 100.617 60.4365C107.104 66.5724 112.274 75.8913 110.775 85.6519C110.334 88.2539 109.377 92.4837 106.84 93.1857C103.121 93.9481 99.2139 92.6411 95.3388 91.9754C95.5694 91.7621 95.78 91.5228 95.9676 91.2614C98.1819 87.6307 97.58 82.7897 95.5376 79.516C94.2472 77.4619 92.4356 75.8947 90.3403 75.0199C91.7276 76.6819 92.8512 78.5998 93.6619 80.6899C94.6239 83.4311 94.855 87.0195 93.2426 89.2584C92.5278 90.0814 90.8832 90.8136 87.1424 89.3129H87.1155L72.7705 83.5279C67.9334 81.5855 52.0781 80.6657 46.9722 80.8291C46.6599 80.849 46.3524 80.7354 46.1112 80.511C45.8701 80.2866 45.7131 79.968 45.6716 79.6188C45.6498 79.2851 45.739 78.9542 45.9217 78.6903C46.1044 78.4264 46.3677 78.2484 46.6605 78.1908L74.8828 74.8142L0.368646 70.7599C0.261116 70.7201 0.167469 70.6431 0.101094 70.5398C0.0347193 70.4366 -0.000992496 70.3124 -0.000992496 70.185C-0.000992496 70.0575 0.0347193 69.9334 0.101094 69.8302C0.167469 69.7269 0.261116 69.6499 0.368646 69.6101L0.341812 69.5738Z" fill="#D4EFEE"/>
<path d="M83.4766 73.6044C82.1705 73.6044 81.1117 72.4123 81.1117 70.9418C81.1117 69.4714 82.1705 68.2793 83.4766 68.2793C84.7826 68.2793 85.8414 69.4714 85.8414 70.9418C85.8414 72.4123 84.7826 73.6044 83.4766 73.6044Z" fill="#002C9B"/>
<path d="M142.539 127.66L137.814 124.029C131.435 119.11 127.194 112.883 125.388 105.779L119.804 83.7705C119.578 83.1653 119.766 82.7962 120.626 82.8325L127.135 83.3711C128.054 83.4135 128.333 83.5768 128.554 84.4664L143.447 127.23C143.527 127.557 142.84 127.89 142.539 127.66Z" fill="#002C9B"/>
<defs>
<clipPath id="clip0_531_1778">
<rect width="161.034" height="223.493" fill="white" transform="matrix(-1 0 0 1 285.035 121)"/>
</clipPath>
<clipPath id="clip1_531_1778">
<rect width="130.273" height="180.801" fill="white" transform="translate(368.82 123.715) rotate(-150)"/>
</clipPath>
</defs>
</svg>
