<svg width="94" height="108" viewBox="0 0 94 108" fill="none" xmlns="http://www.w3.org/2000/svg">
<path d="M0.856629 76.1788C2.28808 75.3478 5.36212 77.8068 6.22045 78.8644C6.9287 79.7321 7.8138 80.8064 8.69343 82.0336C8.76695 82.1377 8.8646 82.2226 8.97801 82.2808C9.09142 82.339 9.21725 82.3689 9.34474 82.368C9.47223 82.367 9.5976 82.3352 9.71013 82.2753C9.82266 82.2154 9.91902 82.1292 9.99098 82.0239C11.4502 80.0147 13.0388 78.1027 14.7465 76.2999C15.4042 75.6114 15.8965 74.7822 16.186 73.8752C16.4755 72.9681 16.5547 72.007 16.4175 71.0648C16.2802 70.1226 15.9302 69.2241 15.3939 68.4373C14.8577 67.6506 14.1493 66.9963 13.3225 66.524C12.4344 66.0141 11.5083 65.5736 10.5524 65.2064C7.5469 64.1001 4.20475 62.5948 4.30999 60.9443C4.41522 59.2938 9.0976 59.8332 11.127 60.2035C13.3441 60.6348 15.5144 61.279 17.6077 62.1272C17.948 62.2817 18.3249 62.3377 18.6955 62.2889C19.0661 62.2402 19.4156 62.0885 19.7044 61.8512C19.9931 61.6139 20.2096 61.3003 20.3292 60.9462C20.4489 60.5921 20.4669 60.2115 20.3813 59.8477C20.0301 57.8393 19.4641 55.8745 18.693 53.9872C17.3266 51.0918 16.0829 47.6809 17.2712 46.5761C18.4594 45.4714 21.4454 49.1636 22.6284 50.8433C25.2979 54.6555 27.7181 58.3055 28.2534 63.4391C28.2534 63.4391 28.3858 64.8687 28.553 65.9365C28.7892 67.5347 32.1084 65.8991 33.3129 64.9421C34.0988 64.2918 34.7183 63.4636 35.1204 62.526C35.5224 61.5885 35.6954 60.5687 35.6247 59.551C35.6222 54.5545 33.5581 50.0128 32.956 48.4405C31.8935 45.8232 29.8215 42.7393 31.1844 41.8509C32.5473 40.9624 35.6509 43.0379 37.489 45.5932C39.3874 48.5298 40.8421 51.7304 41.8059 55.0917C41.9133 55.4734 42.1127 55.8228 42.3868 56.1094C42.6608 56.3959 43.0011 56.6107 43.3776 56.7348C43.7541 56.859 44.1553 56.8888 44.546 56.8215C44.9367 56.7543 45.305 56.5921 45.6183 56.3491C48.245 54.3842 50.6151 52.2451 50.7615 50.3782C50.9613 47.8559 46.1074 39.1444 42.8802 35.991C40.5896 33.739 38.1697 30.9937 38.9392 29.5322C39.7087 28.0707 43.7574 30.4946 45.4537 31.6593C47.422 33.0473 49.2417 34.6346 50.8841 36.3962C51.0535 36.5733 51.2735 36.6938 51.514 36.7412C51.7545 36.7886 52.0038 36.7605 52.2277 36.6609C52.4517 36.5612 52.6393 36.3948 52.7652 36.1845C52.891 35.9741 52.9487 35.73 52.9306 35.4856C52.3751 28.5378 52.5261 17.9755 54.2659 11.5333C56.1808 4.48517 57.7023 -0.220356 60.3775 0.416731C63.0624 1.05613 62.5726 6.69607 62.197 13.4529C62.1052 15.2197 61.9976 16.8799 62.0115 18.5485C61.9984 19.009 62.1052 19.465 62.3212 19.8718C62.5373 20.2786 62.8553 20.6223 63.2442 20.8693C63.633 21.1163 64.0792 21.2581 64.5393 21.2808C64.9994 21.3035 65.4576 21.2064 65.8688 20.9988C68.552 19.6942 71.386 18.7256 74.3064 18.1151C77.0284 17.5195 79.737 17.4552 80.3461 18.9983C80.9551 20.5414 79.5584 22.3058 76.4912 23.7033C72.9486 25.2786 69.5434 27.1462 66.3108 29.2867C65.3221 29.9729 64.5301 30.9058 64.0133 31.9927C63.4966 33.0797 63.2731 34.2829 63.3651 35.4828C63.4642 36.9661 63.535 38.525 63.5437 40.1718C63.5485 41.5669 63.4603 42.9608 63.2799 44.3442C63.2429 44.6451 63.2774 44.9506 63.3804 45.2357C63.4834 45.5209 63.6522 45.7778 63.8731 45.9855C64.0939 46.1933 64.3605 46.3461 64.6514 46.4316C64.9423 46.5171 65.2493 46.5328 65.5474 46.4775C71.9886 45.4827 78.5427 45.4634 84.9896 46.4201C87.2535 46.7125 93.5021 47.8408 93.4353 49.4594C93.3685 51.0779 85.0278 51.569 83.3782 51.5462C81.1931 51.5707 77.9806 51.6794 74.4669 51.9734C76.3014 53.7235 77.9681 55.6416 79.445 57.7025C80.2186 58.7708 81.9273 62.3439 80.7886 63.5427C80.0121 64.3857 75.9349 61.1327 74.5262 60.0982C71.5523 57.9097 66.5319 54.2572 61.7147 54.0249C61.2024 54.0542 60.7069 54.2185 60.2786 54.501C59.8502 54.7835 59.5043 55.1743 59.2756 55.6336C56.861 60.0751 53.8488 63.1406 49.0573 66.9441C56.2018 68.1052 63.1936 70.0634 69.902 72.7819C71.3945 73.5075 76.6091 76.3015 76.042 77.8626C75.4749 79.4237 67.9594 77.5722 66.3232 77.234C63.2163 76.5969 58.8424 75.6683 54.2156 74.8954C55.0077 75.8859 55.8021 76.8666 56.3834 77.6629C57.157 78.7312 58.8754 82.3066 57.727 83.5031C56.9506 84.3461 52.8756 81.0833 51.4743 80.0609C48.5004 77.8724 43.4772 73.9726 38.6531 73.9853C37.8843 74.0205 37.1409 74.2709 36.5074 74.7079C35.0245 75.4958 35.2347 75.4328 33.6231 76.2003C31.4158 77.2318 29.3171 78.4814 27.3585 79.9305C27.2156 80.0337 27.1125 80.1828 27.0663 80.3529C27.0201 80.523 27.0336 80.7038 27.1047 80.8651C27.1757 81.0265 27.3001 81.1585 27.4568 81.2392C27.6135 81.32 27.7932 81.3444 27.9658 81.3086C29.7095 80.9465 31.4716 80.6798 33.2444 80.5098C34.9 80.4209 40.8198 80.3402 41.1171 81.9838C41.4144 83.6274 33.9205 85.6564 32.3205 86.1594C30.7204 86.6624 28.8229 87.2488 26.7615 87.9195C26.6119 87.9658 26.4806 88.0577 26.3859 88.1825C26.2912 88.3072 26.2379 88.4583 26.2335 88.6149C26.2291 88.7714 26.2737 88.9254 26.3613 89.0552C26.4488 89.185 26.5748 89.2842 26.7216 89.3389C28.3266 89.9762 29.8986 90.6937 31.4317 91.4885C32.656 92.0885 35.7467 94.5207 35.2671 96.1026C34.9419 97.1662 29.844 96.1269 28.1332 95.8428C24.4978 95.2238 17.4297 92.8312 13.9598 96.1784C13.4257 96.6715 12.9494 97.2237 12.5399 97.8243C10.3106 101.919 10.3587 103.401 10.3142 103.544C9.92727 104.745 9.10099 105.754 8.00093 106.371C6.90087 106.988 5.60828 107.166 4.38228 106.871L4.00288 106.78C2.74042 106.375 1.69081 105.484 1.08493 104.304C0.479044 103.125 0.366531 101.753 0.772108 100.491C1.61 97.7769 2.63977 95.1263 3.85354 92.5587C4.72124 90.69 4.8235 88.5561 4.13863 86.6129C3.66064 85.2964 3.16695 84.0892 2.74823 83.0849C2.05344 81.47 -0.107401 76.7304 0.856629 76.1788Z" fill="#FF8CFF"/>
</svg>
