<svg width="462" height="896" viewBox="0 0 462 896" fill="none" xmlns="http://www.w3.org/2000/svg">
<path d="M34.5589 295.559C34.999 295.34 35.4332 295.336 35.781 295.469C36.1288 295.602 36.4495 295.895 36.631 296.351C36.816 296.817 36.8305 297.403 36.6145 297.968L20.4852 340.142C20.2691 340.707 19.8674 341.134 19.4188 341.357C18.9788 341.576 18.5445 341.581 18.1967 341.448C17.8489 341.315 17.5282 341.022 17.3467 340.565C17.1616 340.099 17.1472 339.513 17.3631 338.948L33.4925 296.774C33.7084 296.209 34.1102 295.782 34.5589 295.559Z" fill="#9ADEF4"/>
<path d="M115.776 340.002C116.199 339.801 116.645 339.792 117.024 339.938C117.404 340.083 117.73 340.387 117.911 340.818C118.094 341.254 118.109 341.78 117.92 342.274L100.176 388.67C99.987 389.164 99.6246 389.546 99.1976 389.749C98.7754 389.949 98.3292 389.958 97.9498 389.813C97.5704 389.667 97.244 389.363 97.0631 388.932C96.8801 388.497 96.865 387.97 97.0541 387.476L114.798 341.08C114.987 340.586 115.349 340.204 115.776 340.002Z" fill="#9ADEF4"/>
<path d="M115.512 86.3564C116.704 85.8105 118.042 85.769 119.235 86.2255L197.664 116.22C198.857 116.676 199.826 117.6 200.35 118.802C200.874 120.006 200.907 121.39 200.426 122.647L189.226 151.934C189.03 152.446 188.646 152.851 188.17 153.069C187.696 153.286 187.172 153.3 186.709 153.123C186.247 152.946 185.865 152.586 185.657 152.108C185.448 151.628 185.433 151.07 185.629 150.558L197.185 120.34L116.843 89.6132L104.889 120.87C104.693 121.382 104.308 121.788 103.833 122.006C103.359 122.223 102.835 122.237 102.372 122.06C101.909 121.883 101.528 121.523 101.32 121.045C101.111 120.565 101.096 120.007 101.291 119.495L112.889 89.1686C113.37 87.9121 114.318 86.9032 115.512 86.3564Z" fill="#9ADEF4"/>
<path d="M32.8851 555.632C33.3252 555.413 33.7594 555.408 34.1071 555.541C34.4549 555.674 34.7757 555.967 34.9572 556.424C35.1422 556.89 35.1567 557.476 34.9407 558.041L18.8113 600.215C18.5953 600.78 18.1936 601.207 17.745 601.43C17.3049 601.649 16.8706 601.653 16.5228 601.52C16.1751 601.387 15.8544 601.094 15.6729 600.638C15.4878 600.172 15.4733 599.586 15.6893 599.021L31.8186 556.847C32.0346 556.282 32.4364 555.855 32.8851 555.632Z" fill="#9ADEF4"/>
<path d="M-24.9127 411.786C-24.9127 411.786 7.62243 416.772 20.4404 398.536C33.2583 380.3 7.58901 365.535 -24.9127 411.786Z" fill="#4D69FF"/>
<path d="M-24.9127 411.786C-24.9127 411.786 7.62243 416.772 20.4404 398.536C33.2583 380.3 7.58901 365.535 -24.9127 411.786Z" fill="url(#paint0_linear_606_27632)"/>
<path d="M251.003 332.58C251.003 332.58 286.816 355.248 310.581 340.469C334.431 325.633 312.05 295.039 251.003 332.58Z" fill="#4D69FF"/>
<path d="M251.003 332.58C251.003 332.58 286.816 355.248 310.581 340.469C334.431 325.633 312.05 295.039 251.003 332.58Z" fill="url(#paint1_linear_606_27632)"/>
<path d="M1.94791 202.485C1.94791 202.485 43.2637 193.027 49.5101 165.747C55.7764 138.367 18.2944 132.708 1.94791 202.485Z" fill="#4D69FF"/>
<path d="M1.94791 202.485C1.94791 202.485 43.2637 193.027 49.5101 165.747C55.7764 138.367 18.2944 132.708 1.94791 202.485Z" fill="url(#paint2_linear_606_27632)"/>
<path d="M52.2572 458.613C52.2572 458.613 75.3472 474.419 91.3769 465.233C107.464 456.011 93.4243 435.295 52.2572 458.613Z" fill="#4D69FF"/>
<path d="M52.2572 458.613C52.2572 458.613 75.3472 474.419 91.3769 465.233C107.464 456.011 93.4243 435.295 52.2572 458.613Z" fill="url(#paint3_linear_606_27632)"/>
<path d="M184.556 262.372C184.556 262.372 224.099 277.63 244.53 258.505C265.033 239.308 237.121 213.659 184.556 262.372Z" fill="#4D69FF"/>
<path d="M184.556 262.372C184.556 262.372 224.099 277.63 244.53 258.505C265.033 239.308 237.121 213.659 184.556 262.372Z" fill="url(#paint4_linear_606_27632)"/>
<path d="M28.153 682.068C28.153 682.068 2.74628 706.202 9.79514 728.239C16.8721 750.357 45.9205 738.592 28.153 682.068Z" fill="#FAC4E4"/>
<path d="M28.153 682.068C28.153 682.068 2.74628 706.202 9.79514 728.239C16.8721 750.357 45.9205 738.592 28.153 682.068Z" fill="url(#paint5_linear_606_27632)"/>
<path d="M131.181 653.069C131.181 653.069 125.241 695.035 148.483 710.622C171.812 726.264 190.5 693.284 131.181 653.069Z" fill="#FAC4E4"/>
<path d="M131.181 653.069C131.181 653.069 125.241 695.035 148.483 710.622C171.812 726.264 190.5 693.284 131.181 653.069Z" fill="url(#paint6_linear_606_27632)"/>
<path d="M133.629 545.718C133.629 545.718 154.044 573.639 176.508 569.523C199.053 565.39 191.208 535.468 133.629 545.718Z" fill="#FAC4E4"/>
<path d="M133.629 545.718C133.629 545.718 154.044 573.639 176.508 569.523C199.053 565.39 191.208 535.468 133.629 545.718Z" fill="url(#paint7_linear_606_27632)"/>
<path d="M101.213 212.077C101.213 212.077 139.704 226.929 159.591 208.313C179.549 189.627 152.38 164.66 101.213 212.077Z" fill="#4D69FF"/>
<path d="M101.213 212.077C101.213 212.077 139.704 226.929 159.591 208.313C179.549 189.627 152.38 164.66 101.213 212.077Z" fill="url(#paint8_linear_606_27632)"/>
<path d="M101.25 212.025C101.25 212.025 124.256 240.182 114.127 261.948C103.958 283.793 75.5893 267.895 101.25 212.025Z" fill="#FAC4E4"/>
<path d="M101.25 212.025C101.25 212.025 124.256 240.182 114.127 261.948C103.958 283.793 75.5893 267.895 101.25 212.025Z" fill="url(#paint9_linear_606_27632)"/>
<path d="M251.342 332.02C251.342 332.02 216.12 369.011 220.615 395.626C225.111 422.241 245.199 411.374 249.378 400.989C253.556 390.603 258.021 359.888 251.342 332.02Z" fill="#FAC4E4"/>
<path d="M251.342 332.02C251.342 332.02 216.12 369.011 220.615 395.626C225.111 422.241 245.199 411.374 249.378 400.989C253.556 390.603 258.021 359.888 251.342 332.02Z" fill="url(#paint10_linear_606_27632)"/>
<path d="M251.342 332.02C251.342 332.02 216.12 369.011 220.615 395.626C225.111 422.241 245.199 411.374 249.378 400.989C253.556 390.603 258.021 359.888 251.342 332.02Z" fill="url(#paint11_linear_606_27632)"/>
<path d="M185.049 262.275C185.049 262.275 142.319 290.259 140.626 317.197C138.933 344.136 160.97 338.137 167.407 328.978C173.844 319.82 185.196 290.932 185.049 262.275Z" fill="#FAC4E4"/>
<path d="M185.049 262.275C185.049 262.275 142.319 290.259 140.626 317.197C138.933 344.136 160.97 338.137 167.407 328.978C173.844 319.82 185.196 290.932 185.049 262.275Z" fill="url(#paint12_linear_606_27632)"/>
<path d="M28.5729 682.582C28.5729 682.582 22.8064 640.748 3.28248 629.94C-16.2414 619.131 -19.567 637.719 -15.0058 645.772C-10.4445 653.825 7.11334 672.54 28.5729 682.582Z" fill="#4D69FF"/>
<path d="M28.5729 682.582C28.5729 682.582 22.8064 640.748 3.28248 629.94C-16.2414 619.131 -19.567 637.719 -15.0058 645.772C-10.4445 653.825 7.11334 672.54 28.5729 682.582Z" fill="url(#paint13_linear_606_27632)"/>
<path d="M28.5729 682.582C28.5729 682.582 22.8064 640.748 3.28248 629.94C-16.2414 619.131 -19.567 637.719 -15.0058 645.772C-10.4445 653.825 7.11334 672.54 28.5729 682.582Z" fill="url(#paint14_linear_606_27632)"/>
<path d="M132.676 653.438C132.676 653.438 98.024 633.889 78.7809 642.358C59.5379 650.827 71.5747 663.927 80.2143 665.103C88.8539 666.278 112.902 663.795 132.676 653.438Z" fill="#4D69FF"/>
<path d="M132.676 653.438C132.676 653.438 98.024 633.889 78.7809 642.358C59.5379 650.827 71.5747 663.927 80.2143 665.103C88.8539 666.278 112.902 663.795 132.676 653.438Z" fill="url(#paint15_linear_606_27632)"/>
<path d="M132.676 653.438C132.676 653.438 98.024 633.889 78.7809 642.358C59.5379 650.827 71.5747 663.927 80.2143 665.103C88.8539 666.278 112.902 663.795 132.676 653.438Z" fill="url(#paint16_linear_606_27632)"/>
<path d="M134.556 545.525C134.556 545.525 92.8751 545.883 79.8277 563.63C66.7803 581.377 84.5561 586.981 93.0156 583.533C101.475 580.086 122.014 565.263 134.556 545.525Z" fill="#4D69FF"/>
<path d="M134.556 545.525C134.556 545.525 92.8751 545.883 79.8277 563.63C66.7803 581.377 84.5561 586.981 93.0156 583.533C101.475 580.086 122.014 565.263 134.556 545.525Z" fill="url(#paint17_linear_606_27632)"/>
<path d="M2.08453 202.318C2.08453 202.318 -9.91882 251.966 7.28339 272.766C24.4856 293.566 36.4476 274.11 34.8727 263.027C33.2977 251.944 21.8046 223.112 2.08453 202.318Z" fill="#FAC4E4"/>
<path d="M2.08453 202.318C2.08453 202.318 -9.91882 251.966 7.28339 272.766C24.4856 293.566 36.4476 274.11 34.8727 263.027C33.2977 251.944 21.8046 223.112 2.08453 202.318Z" fill="url(#paint18_linear_606_27632)"/>
<path d="M51.9968 458.543C51.9968 458.543 29.4069 493.671 37.1143 514.352C44.8216 535.032 59.2806 523.213 61.0371 514.23C62.7936 505.247 61.6508 479.894 51.9968 458.543Z" fill="#FAC4E4"/>
<path d="M51.9968 458.543C51.9968 458.543 29.4069 493.671 37.1143 514.352C44.8216 535.032 59.2806 523.213 61.0371 514.23C62.7936 505.247 61.6508 479.894 51.9968 458.543Z" fill="url(#paint19_linear_606_27632)"/>
<path d="M306.037 404.053C309.166 407.508 311.142 412 311.594 416.654C312.046 421.302 310.995 425.977 308.595 429.987L308.586 430.003L303.943 437.536C298.794 444.362 293.298 450.918 287.478 457.178C286.75 449.983 285.785 439.109 285.815 435.581L285.815 435.576L286.307 397.349C286.375 392.221 285.049 387.172 282.471 382.746L282.467 382.739L282.463 382.733C261.42 346.998 236.045 314.019 206.915 284.546L206.906 284.537L206.897 284.528C138.678 216.634 66.171 189.931 -8.41545 206.07C-58.9143 216.988 -92.1074 244.553 -97.788 282.484C-101.716 308.655 -92.3089 336.189 -72.0337 362.645C-51.7554 389.106 -20.4564 414.707 19.9366 437.209C77.0197 469.01 114.05 506.447 133.757 542.276C153.477 578.129 155.766 612.152 143.905 637.553L143.904 637.555C132.963 661.037 109.917 677.209 78.542 682.841C44.2613 688.976 0.541393 682.588 -47.9918 664.027L-48.43 663.859L-48.5408 663.826C-50.6206 663.21 -52.7131 662.411 -54.9624 661.551C-90.9496 647.788 -132.516 617.291 -168.02 584.071C-203.547 550.828 -232.544 515.289 -243.678 491.734C-243.84 491.39 -243.86 490.992 -243.73 490.628C-243.599 490.264 -243.331 489.969 -242.986 489.806C-242.642 489.643 -242.251 489.624 -241.898 489.75C-241.544 489.877 -241.254 490.14 -241.092 490.484C-229.73 514.645 -199.088 551.383 -162.644 584.9C-126.207 618.413 -83.4131 649.223 -47.3988 661.181L-47.3244 661.21C-2.1909 678.471 38.8542 684.873 71.6413 680.719C104.471 676.56 129.321 661.74 141.177 636.367C153.222 610.567 150.06 576.676 130.258 541.769C110.438 506.832 73.8396 470.616 18.3781 439.72C-23.1932 416.553 -54.9898 390.111 -75.3757 362.929C-95.7595 335.751 -104.611 308.022 -100.763 282.086C-95.0355 243.813 -62.2025 214.842 -9.17233 203.373C64.9468 187.336 140.303 214.53 208.871 282.666C236.752 310.887 261.209 342.313 281.737 376.294L281.743 376.303L281.749 376.313C285.578 382.548 290.227 388.237 295.571 393.228C299.008 396.491 302.668 400.29 306.037 404.053Z" fill="#9ADEF4"/>
<defs>
<linearGradient id="paint0_linear_606_27632" x1="-9.28911" y1="369.197" x2="-50.2084" y2="391.169" gradientUnits="userSpaceOnUse">
<stop stop-color="#52FFF5"/>
<stop offset="1" stop-color="#CCB1DC" stop-opacity="0"/>
</linearGradient>
<linearGradient id="paint1_linear_606_27632" x1="295.765" y1="293.482" x2="236.99" y2="290.836" gradientUnits="userSpaceOnUse">
<stop stop-color="#52FFF5"/>
<stop offset="1" stop-color="#CCB1DC" stop-opacity="0"/>
</linearGradient>
<linearGradient id="paint2_linear_606_27632" x1="5.71952" y1="143.171" x2="-37.5549" y2="183.032" gradientUnits="userSpaceOnUse">
<stop stop-color="#52FFF5"/>
<stop offset="1" stop-color="#CCB1DC" stop-opacity="0"/>
</linearGradient>
<linearGradient id="paint3_linear_606_27632" x1="82.7175" y1="433.881" x2="44.0028" y2="430.74" gradientUnits="userSpaceOnUse">
<stop stop-color="#52FFF5"/>
<stop offset="1" stop-color="#CCB1DC" stop-opacity="0"/>
</linearGradient>
<linearGradient id="paint4_linear_606_27632" x1="220.845" y1="215.304" x2="162.68" y2="224.158" gradientUnits="userSpaceOnUse">
<stop stop-color="#52FFF5"/>
<stop offset="1" stop-color="#CCB1DC" stop-opacity="0"/>
</linearGradient>
<linearGradient id="paint5_linear_606_27632" x1="31.9253" y1="676.624" x2="39.5678" y2="704.61" gradientUnits="userSpaceOnUse">
<stop stop-color="#9A6AFF"/>
<stop offset="1" stop-color="#FF7596" stop-opacity="0"/>
</linearGradient>
<linearGradient id="paint6_linear_606_27632" x1="130.664" y1="645.074" x2="158.94" y2="665.854" gradientUnits="userSpaceOnUse">
<stop stop-color="#9A6AFF"/>
<stop offset="1" stop-color="#FF7596" stop-opacity="0"/>
</linearGradient>
<linearGradient id="paint7_linear_606_27632" x1="128.776" y1="541.337" x2="157.139" y2="537.393" gradientUnits="userSpaceOnUse">
<stop stop-color="#9A6AFF"/>
<stop offset="1" stop-color="#FF7596" stop-opacity="0"/>
</linearGradient>
<linearGradient id="paint8_linear_606_27632" x1="136.537" y1="166.261" x2="79.9187" y2="174.88" gradientUnits="userSpaceOnUse">
<stop stop-color="#52FFF5"/>
<stop offset="1" stop-color="#CCB1DC" stop-opacity="0"/>
</linearGradient>
<linearGradient id="paint9_linear_606_27632" x1="92.7015" y1="208.484" x2="106.178" y2="241.866" gradientUnits="userSpaceOnUse">
<stop stop-color="#9A6AFF"/>
<stop offset="1" stop-color="#FF7596" stop-opacity="0"/>
</linearGradient>
<linearGradient id="paint10_linear_606_27632" x1="268.656" y1="346.368" x2="253.335" y2="382.747" gradientUnits="userSpaceOnUse">
<stop stop-color="#9A6AFF"/>
<stop offset="1" stop-color="#FF7596" stop-opacity="0"/>
</linearGradient>
<linearGradient id="paint11_linear_606_27632" x1="189.985" y1="353.293" x2="241.295" y2="357.005" gradientUnits="userSpaceOnUse">
<stop stop-color="#9A6AFF"/>
<stop offset="1" stop-color="#FF7596" stop-opacity="0"/>
</linearGradient>
<linearGradient id="paint12_linear_606_27632" x1="198.634" y1="280.194" x2="175.421" y2="312.12" gradientUnits="userSpaceOnUse">
<stop stop-color="#9A6AFF"/>
<stop offset="1" stop-color="#FF7596" stop-opacity="0"/>
</linearGradient>
<linearGradient id="paint13_linear_606_27632" x1="-18.0972" y1="652.07" x2="41.9838" y2="651.386" gradientUnits="userSpaceOnUse">
<stop stop-color="#52FFF5"/>
<stop offset="1" stop-color="#B1DCC7" stop-opacity="0"/>
</linearGradient>
<linearGradient id="paint14_linear_606_27632" x1="9.98361" y1="648.077" x2="12.9201" y2="694.965" gradientUnits="userSpaceOnUse">
<stop stop-color="#52FFF5"/>
<stop offset="1" stop-color="#B1DCC7" stop-opacity="0"/>
</linearGradient>
<linearGradient id="paint15_linear_606_27632" x1="83.1713" y1="671.014" x2="116.942" y2="625.584" gradientUnits="userSpaceOnUse">
<stop stop-color="#52FFF5"/>
<stop offset="1" stop-color="#B1DCC7" stop-opacity="0"/>
</linearGradient>
<linearGradient id="paint16_linear_606_27632" x1="96.2016" y1="647.684" x2="133.027" y2="672.238" gradientUnits="userSpaceOnUse">
<stop stop-color="#52FFF5"/>
<stop offset="1" stop-color="#B1DCC7" stop-opacity="0"/>
</linearGradient>
<linearGradient id="paint17_linear_606_27632" x1="98.4297" y1="559.362" x2="144.701" y2="562.412" gradientUnits="userSpaceOnUse">
<stop stop-color="#52FFF5"/>
<stop offset="1" stop-color="#B1DCC7" stop-opacity="0"/>
</linearGradient>
<linearGradient id="paint18_linear_606_27632" x1="24.2533" y1="206.086" x2="29.1778" y2="245.25" gradientUnits="userSpaceOnUse">
<stop stop-color="#9A6AFF"/>
<stop offset="1" stop-color="#FF7596" stop-opacity="0"/>
</linearGradient>
<linearGradient id="paint19_linear_606_27632" x1="68.1095" y1="467.4" x2="61.407" y2="498.972" gradientUnits="userSpaceOnUse">
<stop stop-color="#9A6AFF"/>
<stop offset="1" stop-color="#FF7596" stop-opacity="0"/>
</linearGradient>
</defs>
</svg>
