<svg width="350" height="728" viewBox="0 0 350 728" fill="none" xmlns="http://www.w3.org/2000/svg">
<path d="M292.417 683.786C292.673 683.343 293.093 683.02 293.586 682.888C294.08 682.756 294.605 682.825 295.048 683.081C295.491 683.337 295.815 683.759 295.947 684.254L306.466 723.525L389.55 701.272L380.276 666.65C380.144 666.155 380.213 665.628 380.469 665.185C380.725 664.742 381.145 664.419 381.638 664.287C382.132 664.155 382.657 664.224 383.1 664.48C383.543 664.736 383.867 665.158 383.999 665.653L393.008 699.286C393.342 700.534 393.168 701.864 392.525 702.983C391.883 704.102 390.825 704.919 389.582 705.259L308.459 726.987C307.209 727.316 305.879 727.137 304.759 726.49C303.639 725.842 302.818 724.778 302.477 723.529L292.224 685.251C292.092 684.756 292.161 684.229 292.417 683.786Z" fill="#9ADEF4"/>
<path d="M171.003 241.247C171.231 240.811 171.58 240.553 171.939 240.457C172.299 240.36 172.731 240.409 173.146 240.673C173.569 240.941 173.924 241.407 174.081 241.991L185.763 285.607C185.92 286.192 185.845 286.773 185.612 287.217C185.385 287.653 185.035 287.911 184.676 288.007C184.316 288.103 183.885 288.054 183.47 287.791C183.046 287.522 182.691 287.056 182.534 286.472L170.852 242.856C170.696 242.272 170.771 241.691 171.003 241.247Z" fill="#9ADEF4"/>
<path d="M262.848 229.585C263.072 229.176 263.428 228.907 263.821 228.802C264.213 228.696 264.656 228.751 265.055 228.994C265.459 229.24 265.78 229.657 265.917 230.168L278.769 278.15C278.906 278.661 278.836 279.183 278.609 279.597C278.385 280.007 278.029 280.276 277.636 280.381C277.244 280.486 276.801 280.431 276.402 280.189C275.998 279.943 275.677 279.526 275.54 279.015L262.688 231.033C262.551 230.522 262.621 230 262.848 229.585Z" fill="#9ADEF4"/>
<path d="M113.818 24.3387C114.463 23.1974 115.523 22.3786 116.757 22.0479L197.866 0.323103C199.101 -0.00751436 200.428 0.172122 201.557 0.838316C202.688 1.50565 203.526 2.60714 203.874 3.90657L211.987 34.1949C212.128 34.7242 212.055 35.2782 211.798 35.7337C211.542 36.1873 211.125 36.5061 210.647 36.6342C210.168 36.7624 209.648 36.6945 209.199 36.4297C208.749 36.1639 208.408 35.7206 208.267 35.1913L199.896 3.94008L116.807 26.1952L125.465 58.5209C125.607 59.0503 125.534 59.6043 125.277 60.0598C125.02 60.5133 124.604 60.832 124.125 60.9602C123.647 61.0884 123.127 61.0205 122.678 60.7558C122.227 60.49 121.887 60.0467 121.745 59.5173L113.345 28.1545C112.997 26.8551 113.173 25.482 113.818 24.3387Z" fill="#9ADEF4"/>
<path d="M230.233 462.836C230.461 462.4 230.81 462.142 231.17 462.046C231.53 461.949 231.961 461.998 232.376 462.262C232.799 462.53 233.155 462.996 233.311 463.58L244.994 507.197C245.15 507.781 245.075 508.362 244.843 508.806C244.615 509.242 244.266 509.5 243.906 509.596C243.547 509.692 243.115 509.643 242.7 509.38C242.277 509.111 241.921 508.645 241.765 508.061L230.082 464.445C229.926 463.861 230.001 463.28 230.233 462.836Z" fill="#9ADEF4"/>
<path d="M322.233 452.836C322.461 452.4 322.81 452.142 323.17 452.046C323.53 451.949 323.961 451.998 324.376 452.262C324.799 452.53 325.155 452.996 325.311 453.58L336.994 497.197C337.15 497.781 337.075 498.362 336.843 498.806C336.615 499.242 336.266 499.5 335.906 499.596C335.547 499.692 335.115 499.643 334.7 499.38C334.277 499.111 333.921 498.645 333.765 498.061L322.082 454.445C321.926 453.861 322.001 453.28 322.233 452.836Z" fill="#9ADEF4"/>
<path d="M191.034 370.26C191.034 370.26 220.306 355.208 219.987 332.921C219.668 310.633 190.218 313.737 191.034 370.26Z" fill="#4D69FF"/>
<path d="M191.034 370.26C191.034 370.26 220.306 355.208 219.987 332.921C219.668 310.633 190.218 313.737 191.034 370.26Z" fill="url(#paint0_linear_606_27684)"/>
<path d="M285.742 593C285.742 593 267.917 620.671 279.337 639.813C290.757 658.955 314.71 641.542 285.742 593Z" fill="#FAC4E4"/>
<path d="M285.742 593C285.742 593 267.917 620.671 279.337 639.813C290.757 658.955 314.71 641.542 285.742 593Z" fill="url(#paint1_linear_606_27684)"/>
<path d="M191.684 368.313C191.684 368.313 168.568 410.166 176.337 421.139C184.023 432.123 207.7 410.488 191.684 368.313Z" fill="#FAC4E4"/>
<path d="M191.684 368.313C191.684 368.313 168.568 410.166 176.337 421.139C184.023 432.123 207.7 410.488 191.684 368.313Z" fill="url(#paint2_linear_606_27684)"/>
<path d="M285.671 593.782C285.671 593.782 284.764 545.978 272.549 540.36C260.401 534.691 250.713 565.266 285.671 593.782Z" fill="#4D69FF"/>
<path d="M285.671 593.782C285.671 593.782 284.764 545.978 272.549 540.36C260.401 534.691 250.713 565.266 285.671 593.782Z" fill="url(#paint3_linear_606_27684)"/>
<path d="M285.671 593.782C285.671 593.782 284.764 545.978 272.549 540.36C260.401 534.691 250.713 565.266 285.671 593.782Z" fill="url(#paint4_linear_606_27684)"/>
<path d="M197.319 594.803C197.319 594.803 157.146 608.317 153.639 636.081C150.122 663.948 187.981 665.859 197.319 594.803Z" fill="#FAC4E4"/>
<path d="M197.319 594.803C197.319 594.803 157.146 608.317 153.639 636.081C150.122 663.948 187.981 665.859 197.319 594.803Z" fill="url(#paint5_linear_606_27684)"/>
<path d="M89.9876 185.008C89.9876 185.008 117.896 153.108 106.949 127.353C95.96 101.504 62.2864 118.912 89.9876 185.008Z" fill="#4D69FF"/>
<path d="M89.9876 185.008C89.9876 185.008 117.896 153.108 106.949 127.353C95.96 101.504 62.2864 118.912 89.9876 185.008Z" fill="url(#paint6_linear_606_27684)"/>
<path d="M87 343.615C87 343.615 119.069 350.836 132.575 333.846C146.129 316.792 121.805 300.279 87 343.615Z" fill="#4D69FF"/>
<path d="M87 343.615C87 343.615 119.069 350.836 132.575 333.846C146.129 316.792 121.805 300.279 87 343.615Z" fill="url(#paint7_linear_606_27684)"/>
<path d="M51.3487 244.082C51.3487 244.082 50.3934 206.163 27.5765 195.838C4.67497 185.477 -6.94852 217.347 51.3487 244.082Z" fill="#4D69FF"/>
<path d="M51.3487 244.082C51.3487 244.082 50.3934 206.163 27.5765 195.838C4.67497 185.477 -6.94852 217.347 51.3487 244.082Z" fill="url(#paint8_linear_606_27684)"/>
<path d="M281 362.905C281 362.905 308.972 362.157 316.563 345.313C324.18 328.407 300.656 319.868 281 362.905Z" fill="#4D69FF"/>
<path d="M281 362.905C281 362.905 308.972 362.157 316.563 345.313C324.18 328.407 300.656 319.868 281 362.905Z" fill="url(#paint9_linear_606_27684)"/>
<path d="M273 126.368C273 126.368 313.974 115.524 319.298 88.0493C324.638 60.4739 286.987 56.0797 273 126.368Z" fill="#4D69FF"/>
<path d="M273 126.368C273 126.368 313.974 115.524 319.298 88.0493C324.638 60.4739 286.987 56.0797 273 126.368Z" fill="url(#paint10_linear_606_27684)"/>
<path d="M176 134.537C176 134.537 215.932 123.969 221.121 97.193C226.325 70.3189 189.631 66.0364 176 134.537Z" fill="#4D69FF"/>
<path d="M176 134.537C176 134.537 215.932 123.969 221.121 97.193C226.325 70.3189 189.631 66.0364 176 134.537Z" fill="url(#paint11_linear_606_27684)"/>
<path d="M176 134.473C176 134.473 211.151 143.776 215.718 167.346C220.3 191.002 187.999 194.771 176 134.473Z" fill="#FAC4E4"/>
<path d="M176 134.473C176 134.473 211.151 143.776 215.718 167.346C220.3 191.002 187.999 194.771 176 134.473Z" fill="url(#paint12_linear_606_27684)"/>
<path d="M367.946 143.585C367.946 143.585 361.126 194.206 380.381 213.121C399.637 232.036 409.529 211.449 406.819 200.588C404.11 189.727 389.705 162.234 367.946 143.585Z" fill="#FAC4E4"/>
<path d="M367.946 143.585C367.946 143.585 361.126 194.206 380.381 213.121C399.637 232.036 409.529 211.449 406.819 200.588C404.11 189.727 389.705 162.234 367.946 143.585Z" fill="url(#paint13_linear_606_27684)"/>
<path d="M367.946 143.585C367.946 143.585 361.126 194.206 380.381 213.121C399.637 232.036 409.529 211.449 406.819 200.588C404.11 189.727 389.705 162.234 367.946 143.585Z" fill="url(#paint14_linear_606_27684)"/>
<path d="M197.176 595.112C197.176 595.112 190.661 544.451 167.166 531.164C143.671 517.877 139.445 540.322 144.873 550.112C150.301 559.902 171.331 582.73 197.176 595.112Z" fill="#4D69FF"/>
<path d="M197.176 595.112C197.176 595.112 190.661 544.451 167.166 531.164C143.671 517.877 139.445 540.322 144.873 550.112C150.301 559.902 171.331 582.73 197.176 595.112Z" fill="url(#paint15_linear_606_27684)"/>
<path d="M197.176 595.112C197.176 595.112 190.661 544.451 167.166 531.164C143.671 517.877 139.445 540.322 144.873 550.112C150.301 559.902 171.331 582.73 197.176 595.112Z" fill="url(#paint16_linear_606_27684)"/>
<path d="M273.342 126C273.342 126 255.157 173.731 269.591 196.539C284.025 219.348 298.351 201.56 298.19 190.367C298.029 179.174 290.274 149.12 273.342 126Z" fill="#FAC4E4"/>
<path d="M273.342 126C273.342 126 255.157 173.731 269.591 196.539C284.025 219.348 298.351 201.56 298.19 190.367C298.029 179.174 290.274 149.12 273.342 126Z" fill="url(#paint17_linear_606_27684)"/>
<path d="M393.223 558.17C393.223 558.17 364.009 527.676 341.858 530.378C319.706 533.081 327.919 550.084 336.337 553.929C344.755 557.774 369.954 562.628 393.223 558.17Z" fill="#4D69FF"/>
<path d="M393.223 558.17C393.223 558.17 364.009 527.676 341.858 530.378C319.706 533.081 327.919 550.084 336.337 553.929C344.755 557.774 369.954 562.628 393.223 558.17Z" fill="url(#paint18_linear_606_27684)"/>
<path d="M393.223 558.17C393.223 558.17 364.009 527.676 341.858 530.378C319.706 533.081 327.919 550.084 336.337 553.929C344.755 557.774 369.954 562.628 393.223 558.17Z" fill="url(#paint19_linear_606_27684)"/>
<path d="M398.637 385C398.637 385 365.094 409.745 364.94 431.771C364.787 453.797 382.47 447.907 387.297 440.152C392.125 432.397 400.061 408.343 398.637 385Z" fill="#4D69FF"/>
<path d="M398.637 385C398.637 385 365.094 409.745 364.94 431.771C364.787 453.797 382.47 447.907 387.297 440.152C392.125 432.397 400.061 408.343 398.637 385Z" fill="url(#paint20_linear_606_27684)"/>
<path d="M90.0004 184.793C90.0004 184.793 109.409 232.04 135.542 238.792C161.676 245.543 159.948 222.769 152.17 214.718C144.392 206.667 118.169 190.062 90.0004 184.793Z" fill="#FAC4E4"/>
<path d="M90.0004 184.793C90.0004 184.793 109.409 232.04 135.542 238.792C161.676 245.543 159.948 222.769 152.17 214.718C144.392 206.667 118.169 190.062 90.0004 184.793Z" fill="url(#paint21_linear_606_27684)"/>
<path d="M86.9361 344C86.9361 344 61.9113 374.71 66.9782 395.021C72.0452 415.333 86.9293 405.729 89.5395 397.449C92.1497 389.168 93.7666 365.15 86.9361 344Z" fill="#FAC4E4"/>
<path d="M86.9361 344C86.9361 344 61.9113 374.71 66.9782 395.021C72.0452 415.333 86.9293 405.729 89.5395 397.449C92.1497 389.168 93.7666 365.15 86.9361 344Z" fill="url(#paint22_linear_606_27684)"/>
<path d="M51.4688 244.193C51.4688 244.193 65.6867 278.805 84.8315 283.75C103.976 288.696 102.71 272.012 97.0126 266.115C91.3148 260.217 72.1045 248.052 51.4688 244.193Z" fill="#FAC4E4"/>
<path d="M51.4688 244.193C51.4688 244.193 65.6867 278.805 84.8315 283.75C103.976 288.696 102.71 272.012 97.0126 266.115C91.3148 260.217 72.1045 248.052 51.4688 244.193Z" fill="url(#paint23_linear_606_27684)"/>
<path d="M280.748 363C280.748 363 283.064 404.701 301.439 416.926C319.814 429.151 324.588 411.097 320.74 402.792C316.893 394.487 301.092 374.626 280.748 363Z" fill="#FAC4E4"/>
<path d="M280.748 363C280.748 363 283.064 404.701 301.439 416.926C319.814 429.151 324.588 411.097 320.74 402.792C316.893 394.487 301.092 374.626 280.748 363Z" fill="url(#paint24_linear_606_27684)"/>
<path d="M454.5 169.827C459.062 170.79 463.297 173.268 466.394 176.771C469.487 180.27 471.378 184.672 471.788 189.328L471.79 189.346L472.449 198.171C472.284 206.719 471.68 215.252 470.64 223.737C465.829 218.338 458.669 210.098 456.622 207.223L456.62 207.22L434.59 175.974C431.636 171.781 427.601 168.471 422.915 166.399L422.909 166.396L422.902 166.393C384.896 149.801 344.997 137.982 304.116 131.206L304.104 131.204L304.091 131.202C209.014 116.246 134.631 137.162 83.6988 193.991C49.2107 232.461 38.5034 274.257 56.1574 308.307C68.3315 331.805 92.1035 348.582 124.045 358.111C155.991 367.642 196.357 370.011 242.269 364.534C307.153 356.795 359.105 365.386 396.084 382.838C433.089 400.302 454.903 426.511 460.202 454.04L460.202 454.042C465.119 479.477 455.944 506.094 433.841 529.062C409.68 554.143 370.528 574.621 320.336 588.065L319.883 588.186L319.774 588.225C317.728 588.946 315.564 589.527 313.238 590.15C276.021 600.118 224.468 599.809 176.226 593.737C127.952 587.661 83.6197 575.895 60.7839 563.352C60.4505 563.168 60.2009 562.858 60.0931 562.487C59.9853 562.116 60.0294 561.719 60.2125 561.385C60.3953 561.051 60.7014 560.806 61.0619 560.701C61.4224 560.596 61.8118 560.639 62.1448 560.823C85.5208 573.722 131.889 585.494 181.066 591.255C230.235 597.015 282.966 596.858 319.146 585.412L319.223 585.392C365.9 572.89 402.894 553.993 427.008 531.393C451.153 508.763 462.582 482.183 457.296 454.68C451.914 426.72 429.469 401.13 392.953 384.481C356.405 367.817 305.52 359.962 242.48 367.481C195.224 373.111 153.961 370.353 121.505 360.302C89.0522 350.252 65.6156 332.99 53.5153 309.73C35.6979 275.376 45.289 232.652 81.5035 192.251C132.117 135.779 209.095 113.588 304.597 128.536C343.732 135.031 381.976 146.131 418.536 161.605L418.546 161.609L418.556 161.613C425.316 164.416 432.418 166.295 439.674 167.201C444.372 167.828 449.565 168.756 454.5 169.827Z" fill="#9ADEF4"/>
<defs>
<linearGradient id="paint0_linear_606_27684" x1="178.699" y1="326.604" x2="158.453" y2="368.405" gradientUnits="userSpaceOnUse">
<stop stop-color="#52FFF5"/>
<stop offset="1" stop-color="#CCB1DC" stop-opacity="0"/>
</linearGradient>
<linearGradient id="paint1_linear_606_27684" x1="292.5" y1="588" x2="303.966" y2="611.757" gradientUnits="userSpaceOnUse">
<stop stop-color="#9A6AFF"/>
<stop offset="1" stop-color="#FF7596" stop-opacity="0"/>
</linearGradient>
<linearGradient id="paint2_linear_606_27684" x1="192.5" y1="365" x2="206.074" y2="384.389" gradientUnits="userSpaceOnUse">
<stop stop-color="#9A6AFF"/>
<stop offset="1" stop-color="#FF7596" stop-opacity="0"/>
</linearGradient>
<linearGradient id="paint3_linear_606_27684" x1="267.359" y1="573.813" x2="291.103" y2="553.77" gradientUnits="userSpaceOnUse">
<stop stop-color="#52FFF5"/>
<stop offset="1" stop-color="#B1DCC7" stop-opacity="0"/>
</linearGradient>
<linearGradient id="paint4_linear_606_27684" x1="274.686" y1="559.946" x2="312.435" y2="587.336" gradientUnits="userSpaceOnUse">
<stop stop-color="#52FFF5"/>
<stop offset="1" stop-color="#B1DCC7" stop-opacity="0"/>
</linearGradient>
<linearGradient id="paint5_linear_606_27684" x1="204.233" y1="590.756" x2="198.343" y2="625.348" gradientUnits="userSpaceOnUse">
<stop stop-color="#9A6AFF"/>
<stop offset="1" stop-color="#FF7596" stop-opacity="0"/>
</linearGradient>
<linearGradient id="paint6_linear_606_27684" x1="58.2422" y1="134.763" x2="46.5852" y2="192.431" gradientUnits="userSpaceOnUse">
<stop stop-color="#52FFF5"/>
<stop offset="1" stop-color="#CCB1DC" stop-opacity="0"/>
</linearGradient>
<linearGradient id="paint7_linear_606_27684" x1="109.504" y1="303.387" x2="65.8821" y2="316.777" gradientUnits="userSpaceOnUse">
<stop stop-color="#52FFF5"/>
<stop offset="1" stop-color="#CCB1DC" stop-opacity="0"/>
</linearGradient>
<linearGradient id="paint8_linear_606_27684" x1="-0.0051398" y1="230.236" x2="27.2685" y2="275.273" gradientUnits="userSpaceOnUse">
<stop stop-color="#52FFF5"/>
<stop offset="1" stop-color="#CCB1DC" stop-opacity="0"/>
</linearGradient>
<linearGradient id="paint9_linear_606_27684" x1="291.156" y1="325.005" x2="257.962" y2="345.176" gradientUnits="userSpaceOnUse">
<stop stop-color="#52FFF5"/>
<stop offset="1" stop-color="#CCB1DC" stop-opacity="0"/>
</linearGradient>
<linearGradient id="paint10_linear_606_27684" x1="274.772" y1="66.9608" x2="232.864" y2="108.257" gradientUnits="userSpaceOnUse">
<stop stop-color="#52FFF5"/>
<stop offset="1" stop-color="#CCB1DC" stop-opacity="0"/>
</linearGradient>
<linearGradient id="paint11_linear_606_27684" x1="177.727" y1="76.6408" x2="136.885" y2="116.886" gradientUnits="userSpaceOnUse">
<stop stop-color="#52FFF5"/>
<stop offset="1" stop-color="#CCB1DC" stop-opacity="0"/>
</linearGradient>
<linearGradient id="paint12_linear_606_27684" x1="167" y1="136.62" x2="197.499" y2="155.746" gradientUnits="userSpaceOnUse">
<stop stop-color="#9A6AFF"/>
<stop offset="1" stop-color="#FF7596" stop-opacity="0"/>
</linearGradient>
<linearGradient id="paint13_linear_606_27684" x1="390.385" y1="145.046" x2="399.322" y2="183.494" gradientUnits="userSpaceOnUse">
<stop stop-color="#9A6AFF"/>
<stop offset="1" stop-color="#FF7596" stop-opacity="0"/>
</linearGradient>
<linearGradient id="paint14_linear_606_27684" x1="330.74" y1="196.81" x2="374.469" y2="169.712" gradientUnits="userSpaceOnUse">
<stop stop-color="#9A6AFF"/>
<stop offset="1" stop-color="#FF7596" stop-opacity="0"/>
</linearGradient>
<linearGradient id="paint15_linear_606_27684" x1="141.065" y1="557.695" x2="213.739" y2="557.529" gradientUnits="userSpaceOnUse">
<stop stop-color="#52FFF5"/>
<stop offset="1" stop-color="#B1DCC7" stop-opacity="0"/>
</linearGradient>
<linearGradient id="paint16_linear_606_27684" x1="175.072" y1="553.175" x2="178.108" y2="609.917" gradientUnits="userSpaceOnUse">
<stop stop-color="#52FFF5"/>
<stop offset="1" stop-color="#B1DCC7" stop-opacity="0"/>
</linearGradient>
<linearGradient id="paint17_linear_606_27684" x1="294.856" y1="132.54" x2="294.789" y2="172.013" gradientUnits="userSpaceOnUse">
<stop stop-color="#9A6AFF"/>
<stop offset="1" stop-color="#FF7596" stop-opacity="0"/>
</linearGradient>
<linearGradient id="paint18_linear_606_27684" x1="337.528" y1="560.843" x2="385.781" y2="525.039" gradientUnits="userSpaceOnUse">
<stop stop-color="#52FFF5"/>
<stop offset="1" stop-color="#B1DCC7" stop-opacity="0"/>
</linearGradient>
<linearGradient id="paint19_linear_606_27684" x1="357.926" y1="541.134" x2="387.813" y2="577.381" gradientUnits="userSpaceOnUse">
<stop stop-color="#52FFF5"/>
<stop offset="1" stop-color="#B1DCC7" stop-opacity="0"/>
</linearGradient>
<linearGradient id="paint20_linear_606_27684" x1="377.5" y1="417.401" x2="416.76" y2="392.724" gradientUnits="userSpaceOnUse">
<stop stop-color="#52FFF5"/>
<stop offset="1" stop-color="#B1DCC7" stop-opacity="0"/>
</linearGradient>
<linearGradient id="paint21_linear_606_27684" x1="110.163" y1="174.838" x2="137.129" y2="203.664" gradientUnits="userSpaceOnUse">
<stop stop-color="#9A6AFF"/>
<stop offset="1" stop-color="#FF7596" stop-opacity="0"/>
</linearGradient>
<linearGradient id="paint22_linear_606_27684" x1="101.182" y1="354.06" x2="91.5095" y2="383.106" gradientUnits="userSpaceOnUse">
<stop stop-color="#9A6AFF"/>
<stop offset="1" stop-color="#FF7596" stop-opacity="0"/>
</linearGradient>
<linearGradient id="paint23_linear_606_27684" x1="66.2392" y1="236.899" x2="85.9938" y2="258.017" gradientUnits="userSpaceOnUse">
<stop stop-color="#9A6AFF"/>
<stop offset="1" stop-color="#FF7596" stop-opacity="0"/>
</linearGradient>
<linearGradient id="paint24_linear_606_27684" x1="298.992" y1="360.719" x2="312.088" y2="390.219" gradientUnits="userSpaceOnUse">
<stop stop-color="#9A6AFF"/>
<stop offset="1" stop-color="#FF7596" stop-opacity="0"/>
</linearGradient>
</defs>
</svg>
